<svg width="1068" height="1001" viewBox="0 0 1068 1001" fill="none" xmlns="http://www.w3.org/2000/svg">
<path d="M1062.63 405.696C1060.49 393.126 1057.87 380.975 1055.2 369.714C1040.8 305.189 1013.92 243.974 976.012 189.388L953.964 157.565L967.583 193.639C984.935 239.752 994.505 288.335 995.916 337.471C995.107 351.957 994.012 365.134 992.583 377.798C987.081 432.906 972.393 486.752 949.107 537.189C947.44 540.647 945.726 544.059 944.012 547.47C922.9 589.02 893.793 626.167 858.297 656.863C808.536 698.946 748.669 727.893 684.345 740.975V659.713C716.905 646.224 747.44 628.444 775.107 606.863C819.54 569.858 854.604 523.23 877.534 470.655C900.464 418.08 910.634 360.996 907.24 303.905C903.846 246.815 886.982 191.278 857.978 141.675C828.974 92.0733 788.623 49.7625 740.107 18.079L713.726 0.788396L733.821 24.9012C753.412 48.3673 768.893 74.8666 779.631 103.314C782.44 110.79 784.869 118.312 786.916 125.649C791.267 141.429 794.105 157.573 795.393 173.872V174.153C795.964 181.302 796.202 188.639 796.107 195.975V197.846C796.107 199.108 796.107 200.367 796.107 201.723C795.774 210.964 794.948 220.183 793.631 229.34L792.345 237.518C781.775 296.636 750.817 350.392 704.659 389.774C658.501 429.156 599.95 451.77 538.821 453.826H529.297C468.22 451.695 409.741 429.041 363.651 389.656C317.56 350.271 286.655 296.546 276.107 237.472L274.821 229.294C273.434 220.079 272.544 210.797 272.155 201.49C272.155 200.135 272.155 198.873 272.155 197.611V195.742C272.155 188.406 272.155 181.07 272.869 173.92V173.64C274.156 157.341 276.994 141.197 281.345 125.416C283.393 118.08 285.821 110.555 288.631 103.079C299.368 74.6316 314.849 48.1346 334.44 24.6685L354.536 0.555664L328.155 17.8463C279.639 49.5298 239.288 91.8406 210.283 141.443C181.279 191.045 164.415 246.582 161.021 303.673C157.628 360.764 167.797 417.848 190.727 470.423C213.658 522.998 248.722 569.626 293.155 606.63C320.822 628.211 351.356 645.989 383.917 659.478V740.74C319.593 727.658 259.726 698.711 209.964 656.628C174.576 625.921 145.568 588.792 124.536 547.283C122.821 543.872 121.107 540.46 119.44 537.002C96.1542 486.565 81.4668 432.719 75.9642 377.611C74.5356 364.947 73.4404 351.77 72.6309 337.284C74.1189 288.134 83.7695 239.551 101.202 193.451L114.821 157.378L92.7737 189.201C54.6955 243.811 27.6658 305.093 13.1547 369.714C10.3928 380.975 7.86897 393.079 5.72611 405.696C-4.6826 479.764 1.20209 555.161 22.9839 626.809C44.7658 698.458 81.9391 764.695 132.001 821.06C182.063 877.426 243.85 922.609 313.204 953.571C382.557 984.533 457.866 1000.56 534.059 1000.56C610.253 1000.56 685.562 984.533 754.915 953.571C824.268 922.609 886.056 877.426 936.118 821.06C986.18 764.695 1023.35 698.458 1045.13 626.809C1066.92 555.161 1072.8 479.764 1062.39 405.696H1062.63ZM250.583 366.022C253.631 371.957 256.869 377.751 260.107 383.358C287.99 430.416 327.971 469.469 376.053 496.614C424.135 523.759 478.635 538.045 534.107 538.045C589.578 538.045 644.078 523.759 692.161 496.614C740.243 469.469 780.223 430.416 808.107 383.358C811.535 377.751 814.774 371.957 817.631 366.022C812.044 409.668 796.191 451.442 771.323 488.042C746.455 524.642 713.255 555.065 674.345 576.909L673.345 577.518C630.806 601.104 582.776 613.498 533.917 613.498C485.057 613.498 437.027 601.104 394.488 577.518L393.488 576.909C354.605 555.049 321.432 524.618 296.59 488.019C271.748 451.42 255.916 409.655 250.345 366.022H250.583ZM342.012 856.675L341.488 857.049L341.059 857.33L340.012 857.937L309.583 876.861C203.917 825.459 133.393 739.853 118.25 645.601C122.694 652.33 127.456 658.873 132.536 665.228C189.678 739.994 280.488 795.04 384.916 822.003C382.504 824.526 380.028 827.002 377.488 829.432C366.97 839.418 355.47 848.355 343.155 856.114L342.012 856.675ZM590.012 932.235C571.558 934.712 552.968 936.085 534.345 936.347C515.722 936.085 497.132 934.712 478.678 932.235C440.566 927.204 403.285 917.324 367.774 902.843C368.821 902.188 369.869 901.581 370.869 900.88C385.599 891.626 399.35 880.951 411.917 869.012C420.954 860.406 429.371 851.194 437.107 841.443L438.726 839.478C449.497 825.363 455.281 808.187 455.202 790.554V684.246L457.345 684.62C508.268 693.967 560.517 693.967 611.44 684.62L613.583 684.246V790.273C613.504 807.907 619.289 825.085 630.059 839.2L631.678 841.162C639.414 850.913 647.831 860.125 656.869 868.731C669.435 880.67 683.186 891.345 697.917 900.6C698.917 901.301 699.964 901.908 701.012 902.562C665.399 917.102 628.003 927.015 589.774 932.048L590.012 932.235ZM759.012 876.861L728.583 857.937L727.536 857.33L727.107 857.049L726.583 856.675L725.631 856.114C713.316 848.355 701.815 839.418 691.297 829.432C688.789 827.002 686.313 824.526 683.869 822.003C788.297 795.04 879.107 739.901 936.25 665.228C941.202 658.998 945.964 652.455 950.535 645.601C934.964 739.666 864.44 825.415 758.774 876.676L759.012 876.861Z" fill="black"/>
</svg>
